<svg xmlns="http://www.w3.org/2000/svg" width="66.667" height="66.667" preserveAspectRatio="xMidYMid meet" version="1.0" viewBox="0 0 50 50"><metadata>Created by potrace 1.15, written by Peter Selinger 2001-2017</metadata><g fill="#000" stroke="none"><path d="M145 452 c-114 -53 -165 -190 -114 -302 25 -56 53 -86 102 -112 94 -48 206 -29 275 46 50 54 65 101 60 181 -5 75 -37 131 -100 172 -54 37 -162 44 -223 15z m175 -23 c56 -25 77 -44 100 -89 42 -81 34 -162 -22 -226 -48 -55 -100 -77 -170 -72 -179 13 -252 226 -120 351 59 56 138 70 212 36z" transform="translate(0.000000,50.000000) scale(0.100000,-0.100000)"/><path d="M177 333 c-3 -5 -8 -48 -12 -97 -6 -72 -4 -88 7 -84 8 3 15 27 18 64 l5 59 18 -32 c22 -42 39 -42 59 0 l15 32 8 -63 c4 -40 11 -62 19 -59 6 2 10 15 9 28 -14 175 -24 195 -58 119 -10 -22 -21 -40 -25 -40 -4 0 -15 18 -25 40 -17 39 -29 48 -38 33z" transform="translate(0.000000,50.000000) scale(0.100000,-0.100000)"/></g></svg>